<svg xmlns="http://www.w3.org/2000/svg" viewBox="0 0 647.45215 124">
  <path fill="#ff690f" d="M 0,0 H 124 V 124 H 0 Z"/>
  <path fill="#fff" d="M 38.225559,31.025902 H 53.298227 V 93.025943 H 38.225559 Z"/>
  <path fill="#fff" d="M 85.774463,92.974057 H 69.147858 L 52.003325,62 69.147858,31.025902 H 85.774463 L 68.526307,62 Z"/>
  <path fill="#ff690f" d="m 130.8889,0 h 124 v 124 h -124 z"/>
  <path fill="#fff" d="m 181.64911,84.065133 -2.69341,9.012568 h -16.05682 l 20.40776,-62.155396 h 19.16453 l 20.25231,62.155396 H 206.3041 l -2.69342,-8.908957 z m 10.98081,-35.324949 -7.25145,23.152875 h 14.50291 z"/>
  <path fill="#ff690f" d="M 261.72598,0 H 385.72603 V 124 H 261.72598 Z"/>
  <path fill="#fff" d="M 331.4954,93.077701 H 316.3191 V 65.677543 L 295.96323,30.922305 h 17.92149 l 10.04843,19.060984 9.89309,-19.060984 h 17.66249 L 331.4954,65.677543 Z"/>
  <path fill="#ff690f" d="M 392.61484,0 H 516.61456 V 124 H 392.61484 Z"/>
  <path fill="#fff" d="m 443.37499,84.065133 -2.69343,9.012568 h -16.05658 l 20.40765,-62.155396 h 19.16456 l 20.25246,62.155396 h -16.41967 l -2.69319,-8.908957 z m 10.98085,-35.324949 -7.25148,23.152875 h 14.50303 z"/>
  <path fill="#ff690f" d="m 523.45216,0 h 124 v 124 h -124 z"/>
  <path fill="#fff" d="m 561.6777,31.025902 h 15.07207 V 93.025943 H 561.6777 Z"/>
  <path fill="#fff" d="M 609.2263,92.974057 H 592.5999 L 575.45525,62 592.5999,31.025902 h 16.6264 L 591.97831,62 Z"/>
</svg>
